<svg width="16" height="15" viewBox="0 0 16 15" fill="none" xmlns="http://www.w3.org/2000/svg">
<path d="M10.3248 5.52656L10.0313 11.5615M5.96873 11.5615L5.67515 5.52656M14.1328 3.37409C14.423 3.40896 14.7115 3.44584 15 3.48541M14.1328 3.37409L13.2267 12.6833C13.1897 13.0623 12.973 13.4164 12.62 13.6746C12.267 13.9328 11.8037 14.0762 11.3227 14.0761H4.67733C4.19632 14.0762 3.73299 13.9328 3.37998 13.6746C3.02698 13.4164 2.81032 13.0623 2.77333 12.6833L1.86715 3.37409M14.1328 3.37409C13.1536 3.25709 12.1693 3.1683 11.1818 3.10789M1.86715 3.37409C1.57697 3.40829 1.28848 3.44517 1 3.48473M1.86715 3.37409C2.84642 3.2571 3.83074 3.1683 4.81818 3.10789M11.1818 3.10789V2.49366C11.1818 1.70241 10.4097 1.04259 9.40848 1.01778C8.46973 0.994072 7.53027 0.994072 6.59152 1.01778C5.5903 1.04259 4.81818 1.70309 4.81818 2.49366V3.10789M11.1818 3.10789C9.06376 2.97852 6.93624 2.97852 4.81818 3.10789" stroke="white" stroke-width="1.5" stroke-linecap="round" stroke-linejoin="round"/>
</svg>
