<svg width="16" height="15" viewBox="0 0 16 15" fill="none" xmlns="http://www.w3.org/2000/svg">
<path d="M11.3502 2.56021L12.6098 1.38303C12.8723 1.13778 13.2285 1 13.5998 1C13.9712 1 14.3273 1.13778 14.5899 1.38303C14.8525 1.62829 15 1.96092 15 2.30776C15 2.6546 14.8525 2.98724 14.5899 3.23249L6.66115 10.638C6.26641 11.0064 5.77962 11.2773 5.24474 11.426L3.23997 11.9839L3.8373 10.1115C3.99654 9.61187 4.28651 9.15721 4.68102 8.78852L11.3502 2.56021ZM11.3502 2.56021L13.3198 4.3999M12.1999 9.1944V12.507C12.1999 12.9231 12.0229 13.3222 11.7078 13.6165C11.3927 13.9107 10.9654 14.0761 10.5199 14.0761H2.67998C2.23442 14.0761 1.80711 13.9107 1.49205 13.6165C1.177 13.3222 1 12.9231 1 12.507V5.18446C1 4.7683 1.177 4.3692 1.49205 4.07493C1.80711 3.78067 2.23442 3.61535 2.67998 3.61535H6.2266" stroke="#F8F5F0" stroke-width="1.5" stroke-linecap="round" stroke-linejoin="round"/>
</svg>
